<?xml version="1.0" encoding="utf-8"?>
<!-- Generator: Adobe Illustrator 16.0.0, SVG Export Plug-In . SVG Version: 6.00 Build 0)  -->
<!DOCTYPE svg PUBLIC "-//W3C//DTD SVG 1.1//EN" "http://www.w3.org/Graphics/SVG/1.1/DTD/svg11.dtd">
<svg version="1.1" id="Layer_1" xmlns="http://www.w3.org/2000/svg" xmlns:xlink="http://www.w3.org/1999/xlink" x="0px" y="0px"
	 width="283.46px" height="283.46px" viewBox="0 0 283.46 283.46" enable-background="new 0 0 283.46 283.46" xml:space="preserve">
<path fill="#FFFFFF" d="M259.81,185.961c-39.209-5.58-78.717-8.369-118.223-8.369c-39.504,0-79.008,2.789-118.219,8.369
	c3.402-7.419,6.916-14.82,10.538-22.199c-5.342-6.246-10.79-12.443-16.34-18.59c41.132-5.853,82.575-8.78,124.021-8.78
	c41.447,0,82.893,2.927,124.028,8.78c-5.554,6.146-11.002,12.344-16.346,18.59C252.894,171.141,256.405,178.542,259.81,185.961z"/>
<path fill="#2C2C32" d="M238.589,168.588c-64.453-7.372-129.544-7.372-194,0c7.217,4.052,14.333,8.193,21.337,12.423
	c50.34-4.558,100.986-4.558,151.328,0C224.258,176.781,231.37,172.64,238.589,168.588z"/>
<path fill="#A9A9A8" d="M52.811,142.458c0-7.539,9.994-13.662,11.854-20.615c1.923-7.193-3.615-17.485,0.029-23.784
	c3.696-6.389,15.41-6.714,20.597-11.898c5.185-5.186,5.511-16.902,11.901-20.598c6.297-3.644,16.589,1.895,23.782-0.029
	c6.953-1.857,13.077-11.855,20.613-11.855c7.541,0,13.664,9.998,20.617,11.855c7.195,1.923,17.485-3.615,23.786,0.029
	c6.387,3.696,6.715,15.412,11.899,20.598c5.185,5.185,16.898,5.511,20.597,11.9c3.643,6.298-1.894,16.588,0.027,23.782
	c1.858,6.953,11.854,13.077,11.854,20.615c0,7.54-9.995,13.665-11.854,20.617c-1.921,7.195,3.615,17.485-0.029,23.783
	c-3.696,6.39-15.41,6.715-20.598,11.9c-5.184,5.186-5.51,16.9-11.9,20.598c-6.297,3.644-16.587-1.896-23.782,0.028
	c-6.953,1.857-13.076,11.855-20.617,11.855c-7.536,0-13.66-9.998-20.613-11.855c-7.195-1.924-17.486,3.614-23.786-0.029
	c-6.387-3.697-6.713-15.412-11.897-20.598c-5.187-5.186-16.902-5.512-20.599-11.9c-3.643-6.299,1.896-16.589-0.027-23.783
	C62.805,156.121,52.811,149.998,52.811,142.458z"/>
<path fill="#FFFFFF" d="M67.174,142.458c0-41.098,33.32-74.414,74.413-74.414c41.104,0,74.42,33.316,74.42,74.414
	c0,41.1-33.316,74.416-74.42,74.416C100.494,216.874,67.174,183.558,67.174,142.458z"/>
<path fill="#A9A9A8" d="M73.421,142.458c0-37.649,30.518-68.168,68.166-68.168c37.656,0,68.17,30.519,68.17,68.168
	c0,37.651-30.514,68.171-68.17,68.171C103.938,210.629,73.421,180.109,73.421,142.458z"/>
<g>
	<path fill="#FFFFFF" d="M238.589,168.588c-64.453-7.372-129.544-7.372-194,0c-1.561-13.645-3.122-27.289-4.681-40.933
		c67.569-7.728,135.795-7.728,203.365,0C241.713,141.299,240.15,154.943,238.589,168.588z"/>
</g>
<rect x="103.127" y="131.264" fill="none" width="156.586" height="24.39"/>
<text transform="matrix(1 0 0 1 103.127 150.0137)" fill="#2C2C32" font-family="'Roboto-Regular'" font-size="25">SILVER</text>
</svg>
